<svg width="277" height="65" viewBox="0 0 277 65" fill="none" xmlns="http://www.w3.org/2000/svg">
<path d="M20.92 64.44C17.88 64.44 15.2667 64.04 13.08 63.24C10.9467 62.44 9.32 61.0267 8.2 59C7.13333 56.9733 6.65333 54.0933 6.76 50.36L7 42.52C7 39.1067 6.52 36.84 5.56 35.72C4.65333 34.6 3.32 34.04 1.56 34.04H0.12V28.76H1.56C3.37333 28.76 4.76 28.1733 5.72 27C6.68 25.7733 7.16 23.6667 7.16 20.68L7 14.76C7 10.0667 8.06667 6.57333 10.2 4.28C12.3867 1.93333 15.4267 0.759999 19.32 0.759999H23.48V5.88H18.44C14.6533 5.88 12.7867 8.54666 12.84 13.88L12.92 19.72C12.92 25.4267 11.08 29.32 7.4 31.4C11.0267 33.0533 12.84 37.16 12.84 43.72L12.68 50.28C12.68 53.64 13.24 55.9867 14.36 57.32C15.5333 58.7067 17.4267 59.4 20.04 59.4H23.4V64.44H20.92ZM255.459 64.44C258.499 64.44 261.085 64.04 263.219 63.24C265.405 62.44 267.032 61.0267 268.099 59C269.219 56.9733 269.725 54.0933 269.619 50.36L269.379 42.52C269.379 39.1067 269.832 36.84 270.739 35.72C271.699 34.6 273.059 34.04 274.819 34.04H276.259V28.76H274.819C273.005 28.76 271.619 28.1733 270.659 27C269.699 25.7733 269.219 23.6667 269.219 20.68L269.379 14.76C269.379 10.0667 268.285 6.57333 266.099 4.28C263.965 1.93333 260.952 0.759999 257.059 0.759999H252.899V5.88H257.939C261.725 5.88 263.592 8.54666 263.539 13.88L263.459 19.72C263.459 25.4267 265.299 29.32 268.979 31.4C265.352 33.0533 263.539 37.16 263.539 43.72L263.699 50.28C263.699 53.64 263.112 55.9867 261.939 57.32C260.819 58.7067 258.952 59.4 256.339 59.4H252.979V64.44H255.459Z" fill="#363434"/>
<path d="M44.4713 33.4L41.6713 37.4V57H35.6712V7.16H42.3913V7.72C42.0713 8.04 41.8579 8.41333 41.7513 8.84C41.6979 9.21333 41.6713 9.82666 41.6713 10.68V29L56.3113 6.76C56.8979 6.86666 57.5913 6.97333 58.3913 7.08C59.2446 7.13333 59.9913 7.16 60.6313 7.16H62.7113L48.6313 28.84L63.6713 57L56.7113 57.32L44.4713 33.4ZM82.2625 57.88C78.9558 57.88 76.3958 56.8933 74.5825 54.92C72.7692 52.9467 71.8625 50.4667 71.8625 47.48C71.8625 43.1067 73.2758 39.8533 76.1025 37.72C78.9825 35.5867 82.6625 34.52 87.1425 34.52C88.6892 34.52 90.3692 34.6533 92.1825 34.92C91.9158 30.92 91.1425 28.2267 89.8625 26.84C88.6358 25.4533 86.7692 24.76 84.2625 24.76C82.8225 24.76 81.4892 25.0533 80.2625 25.64C79.0358 26.1733 77.8358 27.0533 76.6625 28.28L73.7025 24.12C76.6892 20.9733 80.3425 19.4 84.6625 19.4C87.3292 19.4 89.6225 19.9067 91.5425 20.92C93.5158 21.9333 95.0092 23.7467 96.0225 26.36C97.0892 28.92 97.6225 32.52 97.6225 37.16V57H91.6225V51.96C90.5558 54.36 89.1425 55.96 87.3825 56.76C85.6758 57.5067 83.9692 57.88 82.2625 57.88ZM77.6225 47C77.6225 49.0267 78.1292 50.4933 79.1425 51.4C80.2092 52.2533 81.5158 52.68 83.0625 52.68C85.8358 52.68 87.9958 51.6133 89.5425 49.48C91.1425 47.3467 92.0225 44.12 92.1825 39.8C90.4758 39.5867 88.8758 39.48 87.3825 39.48C84.2892 39.48 81.8892 40.0667 80.1825 41.24C78.4758 42.4133 77.6225 44.3333 77.6225 47Z" fill="#FC5185"/>
<path d="M108.214 57.08V7.16H117.894C121.36 7.16 124.08 7.72 126.054 8.84C128.027 9.90666 129.654 11.56 130.934 13.8C132.267 15.9867 133.254 18.6 133.894 21.64C134.534 24.6267 134.854 28.2 134.854 32.36C134.694 40.1467 133.254 46.2267 130.534 50.6C127.867 54.92 123.414 57.08 117.174 57.08H108.214ZM114.054 51.88H117.094C121.254 51.88 124.294 50.2 126.214 46.84C128.134 43.4267 129.067 38.7067 129.014 32.68C129.014 26.4933 128.16 21.5867 126.454 17.96C124.8 14.3333 121.92 12.52 117.814 12.52H114.054V51.88ZM158.485 57.8C154.058 57.8 150.538 56.2533 147.925 53.16C145.312 50.0133 144.005 45.24 144.005 38.84C144.005 32.2267 145.258 27.32 147.765 24.12C150.325 20.92 153.605 19.32 157.605 19.32C161.178 19.32 164.112 20.7067 166.405 23.48C168.698 26.2 169.845 30.7333 169.845 37.08C169.845 38.04 169.792 38.9733 169.685 39.88H149.685C149.845 44.52 150.752 47.8 152.405 49.72C154.058 51.64 156.138 52.6 158.645 52.6C161.578 52.6 163.978 51.3733 165.845 48.92L169.045 52.44C166.378 56.0133 162.858 57.8 158.485 57.8ZM149.845 34.84H163.925C163.925 27.9067 161.738 24.44 157.365 24.44C155.392 24.44 153.738 25.24 152.405 26.84C151.072 28.3867 150.218 31.0533 149.845 34.84ZM190.676 57L179.556 20.2H185.476L193.556 47.72L197.636 35.32C198.543 32.44 199.263 29.7467 199.796 27.24C200.383 24.68 200.81 22.3333 201.076 20.2H206.516C206.196 22.4933 205.69 25 204.996 27.72C204.356 30.3867 203.53 33.2133 202.516 36.2L195.636 57H190.676ZM229.028 57.8C226.308 57.8 223.908 57.4 221.828 56.6C219.748 55.7467 217.934 54.5467 216.388 53L219.188 47.48L219.508 46.76L220.068 47.08C220.174 47.4533 220.281 47.88 220.388 48.36C220.548 48.7867 220.921 49.32 221.508 49.96C222.468 50.76 223.534 51.4267 224.708 51.96C225.934 52.44 227.401 52.68 229.108 52.68C231.188 52.68 232.814 52.1733 233.988 51.16C235.161 50.0933 235.748 48.7067 235.748 47C235.748 45.56 235.241 44.3867 234.228 43.48C233.214 42.52 231.428 41.5067 228.868 40.44C225.561 39.16 222.894 37.6667 220.868 35.96C218.894 34.2 217.908 31.88 217.908 29C217.908 26.2267 218.868 23.9333 220.788 22.12C222.761 20.2533 225.588 19.32 229.268 19.32C231.988 19.32 234.281 19.7733 236.148 20.68C238.068 21.5867 239.694 22.9467 241.028 24.76L238.068 29.16L237.588 29.8L237.108 29.48C237.001 29.0533 236.894 28.6267 236.788 28.2C236.681 27.72 236.361 27.16 235.828 26.52C234.921 25.7733 233.908 25.2133 232.788 24.84C231.721 24.4667 230.628 24.28 229.508 24.28C227.748 24.28 226.308 24.68 225.188 25.48C224.121 26.28 223.588 27.3467 223.588 28.68C223.588 30.0667 224.121 31.2667 225.188 32.28C226.254 33.24 228.308 34.3067 231.348 35.48C234.921 36.92 237.481 38.3867 239.028 39.88C240.574 41.3733 241.348 43.5067 241.348 46.28C241.348 49.8 240.281 52.6 238.148 54.68C236.068 56.76 233.028 57.8 229.028 57.8Z" fill="#482FF7"/>
</svg>
